<?xml version="1.0" encoding="UTF-8" standalone="no"?>
<!-- Created with Inkscape (http://www.inkscape.org/) -->

<svg
   xmlns:dc="http://purl.org/dc/elements/1.1/"
   xmlns:cc="http://creativecommons.org/ns#"
   xmlns:rdf="http://www.w3.org/1999/02/22-rdf-syntax-ns#"
   xmlns:svg="http://www.w3.org/2000/svg"
   xmlns="http://www.w3.org/2000/svg"
   xmlns:sodipodi="http://sodipodi.sourceforge.net/DTD/sodipodi-0.dtd"
   xmlns:inkscape="http://www.inkscape.org/namespaces/inkscape"
   width="92.889793mm"
   height="92.889793mm"
   viewBox="0 0 92.889795 92.889795"
   version="1.1"
   id="svg8"
   inkscape:version="0.92.3 (2405546, 2018-03-11)"
   sodipodi:docname="main.svg">
  <defs
     id="defs2" />
  <sodipodi:namedview
     id="base"
     pagecolor="#ffffff"
     bordercolor="#666666"
     borderopacity="1.0"
     inkscape:pageopacity="0.0"
     inkscape:pageshadow="2"
     inkscape:zoom="1.4"
     inkscape:cx="363.83031"
     inkscape:cy="162.3515"
     inkscape:document-units="mm"
     inkscape:current-layer="layer1"
     showgrid="false"
     inkscape:window-width="1920"
     inkscape:window-height="1017"
     inkscape:window-x="-8"
     inkscape:window-y="-8"
     inkscape:window-maximized="1"
     inkscape:snap-global="false" />
  <metadata
     id="metadata5">
    <rdf:RDF>
      <cc:Work
         rdf:about="">
        <dc:format>image/svg+xml</dc:format>
        <dc:type
           rdf:resource="http://purl.org/dc/dcmitype/StillImage" />
        <dc:title />
      </cc:Work>
    </rdf:RDF>
  </metadata>
  <g
     inkscape:label="Layer 1"
     inkscape:groupmode="layer"
     id="layer1"
     transform="translate(-4.1781587,-3.7546271)">
    <path
       id="path1323"
       transform="matrix(0.09439396,0,0,0.09439396,119.29236,92.276551)"
       d="M -727.31055,-908.61719 A 462.85713,462.85713 0 0 0 -1190.168,-445.75977 462.85713,462.85713 0 0 0 -727.31055,17.097656 462.85713,462.85713 0 0 0 -264.45312,-445.75977 462.85713,462.85713 0 0 0 -727.31055,-908.61719 Z"
       style="clip-rule:evenodd;fill:#191717;fill-opacity:1;fill-rule:evenodd;stroke-width:2.80296898"
       inkscape:connector-curvature="0" />
    <path
       style="clip-rule:evenodd;fill:#ffffff;fill-opacity:1;fill-rule:evenodd;stroke-width:3.32872391"
       d="m -941.51367,-693.82422 c 15.02761,0.0814 49.82023,5.69822 107.24609,44.59961 33.50513,-10.30927 69.58748,-12.88672 105.66992,-12.88672 36.08245,0 72.1648,5.15477 105.66993,12.88672 79.89684,-54.12367 115.97851,-43.81445 115.97851,-43.81445 23.19586,56.70099 7.73162,100.51495 5.1543,110.82422 25.77317,28.35049 43.81445,67.01062 43.81445,113.40234 0,162.37101 -97.93727,195.87628 -190.7207,206.18555 15.4639,12.88659 28.34961,38.65859 28.34961,77.31836 v 115.980465 c 0,3.607473 0.95202,7.528516 3.0664,10.994141 -35.7864,10.200706 -72.81357,15.39396 -110.02539,15.43164 -36.77381,-0.131961 -73.35639,-5.298432 -108.72851,-15.355468 1.20951,-2.785458 1.77148,-5.731685 1.77148,-8.494141 v -72.164067 c -62.83002,27.40239 -113.49405,21.40535 -149.2599,6.90452 -42.56852,-21.32964 -50.91982,-41.11244 -76.12572,-77.64461 -15.2562,-23.0448 -30.5222,-29.9841 -30.5222,-29.9841 -38.6598,-25.77317 2.5762,-25.77343 2.5762,-25.77343 41.237,2.57731 64.4336,43.81445 64.4336,43.81445 34.51645,65.26946 104.39763,63.68554 149.24872,46.29258 46.81192,-18.42652 32.77509,-29.05141 49.16946,-62.24474 4.92211,-9.79628 10.92985,-17.17795 16.25133,-22.49943 -92.78344,-10.30927 -190.72071,-46.39071 -190.72071,-208.76172 0,-46.39172 15.46396,-82.47453 43.81446,-113.40234 -5.15464,-10.30927 -18.04157,-54.12323 5.15429,-110.82422 0,0 2.85401,-0.81701 8.73438,-0.78516 z"
       transform="matrix(0.07948492,0,0,0.07948492,115.22018,73.446163)"
       id="path1325"
       inkscape:connector-curvature="0"
       sodipodi:nodetypes="scscccscsscccscccccccccsccs" />
    <path
       style="fill:#ffffff;fill-opacity:1;fill-rule:evenodd;stroke-width:27.86252785"
       d="m -388.10352,-284.50586 c -29.94521,34.64964 -102.15501,24.3105 -120.38086,7.22656 -20.29257,29.43373 -138.43759,18.24469 -146.67773,-4.68554 -25.44303,29.85897 -104.27963,29.85897 -129.72266,0 -8.24608,22.93023 -126.38805,34.1203 -146.68359,4.68359 -18.22289,17.08692 -90.42984,27.42595 -120.37504,-7.2207 5.7842,21.24269 -28.5702,27.03203 -45.3593,31.19336 h -50.3868 a 462.85711,462.85711 0 0 0 420.42388,270.406246 462.85711,462.85711 0 0 0 420.33398,-270.406246 h -35.80469 c -16.77917,-4.1587 -51.15267,-9.94672 -45.36719,-31.19727 z"
       transform="matrix(0.09273466,0,0,0.09273466,118.08553,93.100002)"
       id="path1327"
       inkscape:connector-curvature="0" />
    <path
       style="clip-rule:evenodd;fill:#191717;fill-rule:evenodd;stroke-width:2.63676667"
       d="m -727.31055,-908.61719 a 462.85712,462.85712 0 0 0 -462.85745,462.85742 462.85712,462.85712 0 0 0 462.85745,462.857426 462.85712,462.85712 0 0 0 462.85743,-462.857426 462.85712,462.85712 0 0 0 -462.85743,-462.85742 z m 0,57.14258 a 405.7143,405.7143 0 0 1 405.71485,405.71484 405.7143,405.7143 0 0 1 -405.71485,405.714848 405.7143,405.7143 0 0 1 -405.71485,-405.714848 405.7143,405.7143 0 0 1 405.71485,-405.71484 z"
       transform="matrix(0.10034385,0,0,0.10034385,123.61978,94.928775)"
       id="path1329"
       inkscape:connector-curvature="0" />
    <rect
       style="opacity:1;vector-effect:none;fill:#ffffff;fill-opacity:1;fill-rule:evenodd;stroke:none;stroke-width:4.22418022;stroke-linecap:round;stroke-linejoin:bevel;stroke-miterlimit:4;stroke-dasharray:none;stroke-dashoffset:0;stroke-opacity:1;paint-order:normal"
       id="rect1331"
       width="75.256363"
       height="75.256363"
       x="-1331.3811"
       y="-728.07977"
       transform="matrix(0.23673235,0,0,0.23673235,331.63911,207.03251)"
       rx="0"
       ry="0" />
    <path
       style="fill:#191717;fill-opacity:1;fill-rule:evenodd;stroke-width:7.39929247"
       d="m -664.75391,-1143.2109 v 45.6875 h 45.6836 v -45.6875 z m 3.8086,3.8047 h 3.60351 v 38.0722 h -3.60351 z m 6.77734,0 h 3.74805 v 38.0722 h -3.74805 z m 6.91992,0 H -643.5 v 38.0722 h -3.74805 z m 6.92188,0 h 3.75 v 38.0722 h -3.75 z m 6.92383,0 h 3.74804 v 38.0722 h -3.74804 z m 6.91992,0 h 3.60547 v 38.0722 h -3.60547 z"
       transform="matrix(0.34919846,0,0,0.34919846,249.52065,434.81079)"
       id="path1333"
       inkscape:connector-curvature="0" />
  </g>
</svg>
