<?xml version="1.0" encoding="UTF-8" standalone="no"?>
<!-- Created with Inkscape (http://www.inkscape.org/) -->

<svg
   xmlns:dc="http://purl.org/dc/elements/1.1/"
   xmlns:cc="http://creativecommons.org/ns#"
   xmlns:rdf="http://www.w3.org/1999/02/22-rdf-syntax-ns#"
   xmlns:svg="http://www.w3.org/2000/svg"
   xmlns="http://www.w3.org/2000/svg"
   xmlns:xlink="http://www.w3.org/1999/xlink"
   xmlns:sodipodi="http://sodipodi.sourceforge.net/DTD/sodipodi-0.dtd"
   xmlns:inkscape="http://www.inkscape.org/namespaces/inkscape"
   width="152.98801mm"
   height="152.98801mm"
   viewBox="0 0 152.98801 152.98801"
   version="1.1"
   id="svg8"
   inkscape:version="0.92.3 (2405546, 2018-03-11)"
   sodipodi:docname="main.svg">
  <defs
     id="defs2">
    <linearGradient
       inkscape:collect="always"
       id="linearGradient1086">
      <stop
         style="stop-color:#37b1d9;stop-opacity:1;"
         offset="0"
         id="stop1082" />
      <stop
         style="stop-color:#37b1d9;stop-opacity:0;"
         offset="1"
         id="stop1084" />
    </linearGradient>
    <linearGradient
       inkscape:collect="always"
       id="linearGradient1078">
      <stop
         style="stop-color:#1b81a5;stop-opacity:1"
         offset="0"
         id="stop1074" />
      <stop
         style="stop-color:#37b1d9;stop-opacity:1"
         offset="1"
         id="stop1076" />
    </linearGradient>
    <linearGradient
       inkscape:collect="always"
       xlink:href="#linearGradient1078"
       id="linearGradient1080"
       x1="-651.52704"
       y1="-66.256668"
       x2="-668.89246"
       y2="-238.40314"
       gradientUnits="userSpaceOnUse" />
    <linearGradient
       inkscape:collect="always"
       xlink:href="#linearGradient1086"
       id="linearGradient1231"
       gradientUnits="userSpaceOnUse"
       x1="-1691.5024"
       y1="-1288.7621"
       x2="-1648.7684"
       y2="-1135.905"
       gradientTransform="matrix(0.74379882,0,0,0.74379882,629.17508,-89.953659)" />
  </defs>
  <sodipodi:namedview
     id="base"
     pagecolor="#ffffff"
     bordercolor="#666666"
     borderopacity="1.0"
     inkscape:pageopacity="0.0"
     inkscape:pageshadow="2"
     inkscape:zoom="0.7"
     inkscape:cx="391.86173"
     inkscape:cy="157.5295"
     inkscape:document-units="mm"
     inkscape:current-layer="layer1"
     showgrid="false"
     inkscape:window-width="1920"
     inkscape:window-height="1017"
     inkscape:window-x="-8"
     inkscape:window-y="-8"
     inkscape:window-maximized="1"
     inkscape:snap-global="false" />
  <metadata
     id="metadata5">
    <rdf:RDF>
      <cc:Work
         rdf:about="">
        <dc:format>image/svg+xml</dc:format>
        <dc:type
           rdf:resource="http://purl.org/dc/dcmitype/StillImage" />
        <dc:title />
      </cc:Work>
    </rdf:RDF>
  </metadata>
  <g
     inkscape:label="Layer 1"
     inkscape:groupmode="layer"
     id="layer1"
     transform="translate(-4.1781568,-3.7546264)">
    <g
       id="g1249"
       transform="translate(4.1577381,3.7797619)">
      <path
         inkscape:connector-curvature="0"
         style="clip-rule:evenodd;fill:#ffffff;fill-rule:evenodd;stroke-width:1.60096681"
         d="M -727.31055,-908.61719 A 462.85713,462.85713 0 0 0 -1190.168,-445.75977 462.85713,462.85713 0 0 0 -727.31055,17.097656 462.85713,462.85713 0 0 0 -264.45312,-445.75977 462.85713,462.85713 0 0 0 -727.31055,-908.61719 Z"
         transform="matrix(0.16526472,0,0,0.16526472,196.7132,150.13723)"
         id="path959" />
      <path
         inkscape:connector-curvature="0"
         id="path916"
         transform="matrix(0.1309104,0,0,0.1309104,172.60761,114.13319)"
         d="m -941.51367,-693.82422 c 15.02761,0.0814 49.82023,5.69822 107.24609,44.59961 33.50513,-10.30927 69.58748,-12.88672 105.66992,-12.88672 36.08245,0 72.1648,5.15477 105.66993,12.88672 79.89684,-54.12367 115.97851,-43.81445 115.97851,-43.81445 23.19586,56.70099 7.73162,100.51495 5.1543,110.82422 25.77317,28.35049 43.81445,67.01062 43.81445,113.40234 0,162.37101 -97.93727,195.87628 -190.7207,206.18555 15.4639,12.88659 28.34961,38.65859 28.34961,77.31836 v 115.980465 c 0,3.607473 0.95202,7.528516 3.0664,10.994141 a 402.85713,402.85713 0 0 1 -110.02539,15.43164 402.85713,402.85713 0 0 1 -108.72851,-15.355468 c 1.20951,-2.785458 1.77148,-5.731685 1.77148,-8.494141 v -72.164067 c -115.97929,25.77318 -141.7539,-56.70117 -141.7539,-56.70117 -18.04123,-48.96903 -46.39062,-61.85547 -46.39062,-61.85547 -38.6598,-25.77317 2.5762,-25.77343 2.5762,-25.77343 41.23704,2.57731 64.43356,43.81445 64.43356,43.81445 38.65976,64.43294 97.9389,46.3913 121.13476,36.08203 2.57732,-28.35049 15.46222,-46.3919 25.77149,-56.70117 -92.78344,-10.30927 -190.72071,-46.39071 -190.72071,-208.76172 0,-46.39172 15.46396,-82.47453 43.81446,-113.40234 -5.15464,-10.30927 -18.04157,-54.12323 5.15429,-110.82422 0,0 2.85401,-0.81701 8.73438,-0.78516 z"
         style="clip-rule:evenodd;fill:#191717;fill-opacity:1;fill-rule:evenodd;stroke-width:2.02110267" />
      <path
         inkscape:connector-curvature="0"
         id="path1002"
         transform="matrix(0.16526472,0,0,0.16526472,196.7132,150.13723)"
         d="m -388.10352,-284.50586 c -29.94521,34.64964 -102.15501,24.3105 -120.38086,7.22656 -20.29257,29.43373 -138.43759,18.24469 -146.67773,-4.68554 -25.44303,29.85897 -104.27963,29.85897 -129.72266,0 -8.24608,22.93023 -126.38805,34.1203 -146.68359,4.68359 -18.22289,17.08692 -90.42984,27.42595 -120.37504,-7.2207 5.7842,21.24269 -28.5702,27.03203 -45.3593,31.19336 h -50.3868 a 462.85711,462.85711 0 0 0 420.42388,270.406246 462.85711,462.85711 0 0 0 420.33398,-270.406246 h -35.80469 c -16.77917,-4.1587 -51.15267,-9.94672 -45.36719,-31.19727 z"
         style="fill:url(#linearGradient1080);fill-opacity:1;fill-rule:evenodd;stroke-width:15.63444328" />
      <path
         inkscape:connector-curvature="0"
         id="path935"
         transform="matrix(0.16526472,0,0,0.16526472,196.7132,150.13723)"
         d="m -727.31055,-908.61719 a 462.85712,462.85712 0 0 0 -462.85745,462.85742 462.85712,462.85712 0 0 0 462.85745,462.857426 462.85712,462.85712 0 0 0 462.85743,-462.857426 462.85712,462.85712 0 0 0 -462.85743,-462.85742 z m 0,57.14258 a 405.7143,405.7143 0 0 1 405.71485,405.71484 405.7143,405.7143 0 0 1 -405.71485,405.714848 405.7143,405.7143 0 0 1 -405.71485,-405.714848 405.7143,405.7143 0 0 1 405.71485,-405.71484 z"
         style="clip-rule:evenodd;fill:#191717;fill-rule:evenodd;stroke-width:1.60096681" />
      <g
         style="stroke-width:1.60096681"
         transform="matrix(0.62462256,0,0,0.62462256,250.63564,185.69599)"
         id="g1240">
        <rect
           style="opacity:1;vector-effect:none;fill:#000000;fill-opacity:1;fill-rule:evenodd;stroke:none;stroke-width:6.55697346;stroke-linecap:round;stroke-linejoin:bevel;stroke-miterlimit:4;stroke-dasharray:none;stroke-dashoffset:0;stroke-opacity:1;paint-order:normal"
           id="rect1236"
           width="75.256363"
           height="75.256363"
           x="-1331.3811"
           y="-728.07977"
           transform="matrix(0.24416247,0,0,0.24416247,-26.853863,-13.665304)"
           rx="0"
           ry="0" />
        <path
           style="fill:url(#linearGradient1231);fill-opacity:1;fill-rule:evenodd;stroke-width:12.2009201"
           d="m -664.75391,-1143.2109 v 45.6875 h 45.6836 v -45.6875 z m 3.8086,3.8047 h 3.60351 v 38.0722 h -3.60351 z m 6.77734,0 h 3.74805 v 38.0722 h -3.74805 z m 6.91992,0 H -643.5 v 38.0722 h -3.74805 z m 6.92188,0 h 3.75 v 38.0722 h -3.75 z m 6.92383,0 h 3.74804 v 38.0722 h -3.74804 z m 6.91992,0 h 3.60547 v 38.0722 h -3.60547 z"
           transform="matrix(0.33904102,0,0,0.33904102,-125.10524,197.60275)"
           id="path1228"
           inkscape:connector-curvature="0" />
      </g>
    </g>
  </g>
</svg>
